#!OML:ASF X:\für Bonn\!DataBase\2005_08_10_Bjorn_Final\c3d\bjorn.ASF
:FULLY-SPECIFIED
:DEGREES
235
root 6.22649 18.6365 0.226976 447.699 86.1257 -638.755
lowerback 4.72537 2.93939 0.730872
upperback 6.43979 4.24478 -2.68389
thorax 4.28173 2.32438 -3.21218
lowerneck -0.592783 -3.93136 1.64474
upperneck -5.49409 -5.28401 -2.00009
head -1.71137 -2.61186 -0.826316
rclavicle 7.26558e-014 -3.28989e-014
rhumerus -23.2366 -8.92484 -83.9448
rradius 25.335
rwrist 5.15165
rhand -14.5509 12.1207
rfingers 7.12502
rthumb 11.5979 -17.5383
lclavicle 7.26558e-014 -3.28989e-014
lhumerus -35.7956 -24.6213 84.1933
lradius 43.1609
lwrist 4.04016
lhand -11.7548 -2.83609
lfingers 7.12502
lthumb 14.2933 26.652
rfemur -14.6933 3.49818 9.22234
rtibia 42.7913
rfoot -23.9429 13.1494
rtoes -15.4878
lfemur -23.4925 4.27076 -24.9591
ltibia 44.0883
lfoot -20.299 -0.950532
ltoes -10.7158
236
root 6.26478 18.7022 0.223537 445.226 86.1394 -641.388
lowerback 4.19375 2.98506 0.609724
upperback 6.24025 4.29731 -2.83467
thorax 4.37687 2.34192 -3.27545
lowerneck -0.060232 -3.87613 1.79379
upperneck -6.09081 -5.20143 -1.88276
head -1.99703 -2.56979 -0.800993
rclavicle -2.72832e-014 2.89232e-014
rhumerus -23.9397 -8.67793 -84.0973
rradius 25.6954
rwrist 4.88454
rhand -14.458 12.0058
rfingers 7.12502
rthumb 11.6875 -17.6482
lclavicle -2.72832e-014 2.89232e-014
lhumerus -36.2578 -23.961 84.445
lradius 42.9203
lwrist 6.85882
lhand -9.82034 -1.75777
lfingers 7.12502
lthumb 16.1566 27.5888
rfemur -13.926 3.35765 9.27664
rtibia 41.1448
rfoot -23.5125 13.0743
rtoes -15.3294
lfemur -22.7742 4.27923 -24.924
ltibia 42.6784
lfoot -19.9251 -0.908363
ltoes -10.3993
237
root 6.30384 18.7629 0.220517 442.378 86.1629 -644.356
lowerback 3.71587 3.05372 0.534502
upperback 6.03201 4.3836 -3.00408
thorax 4.44092 2.37927 -3.38642
lowerneck 0.438196 -3.82811 1.93272
upperneck -6.59038 -5.12166 -1.70584
head -2.24633 -2.53254 -0.756965
rclavicle 3.13459e-014 -1.22253e-014
rhumerus -24.6665 -8.61019 -84.2303
rradius 26.0318
rwrist 4.73497
rhand -14.3034 11.9216
rfingers 7.12502
rthumb 11.8366 -17.7239
lclavicle 3.13459e-014 -1.22253e-014
lhumerus -36.7273 -23.3136 84.5849
lradius 42.7147
lwrist 9.81336
lhand -7.78721 -0.696621
lfingers 7.12502
lthumb 18.1136 28.48
rfemur -13.1619 3.24008 9.34859
rtibia 39.5976
rfoot -23.0764 13.0872
rtoes -14.9239
lfemur -22.0744 4.38698 -24.864
ltibia 41.3789
lfoot -19.5802 -0.94822
ltoes -10.095
238
root 6.34394 18.8167 0.216915 439.468 86.1559 -647.394
lowerback 3.19008 3.10486 0.392582
upperback 5.85118 4.44834 -3.13572
thorax 4.55155 2.40265 -3.41671
lowerneck 0.862259 -3.75252 1.96873
upperneck -7.0349 -5.00195 -1.48897
head -2.46156 -2.47557 -0.685829
rclavicle 5.89148e-014 -4.86029e-014
rhumerus -25.3056 -8.51456 -84.3194
rradius 26.3495
rwrist 4.65864
rhand -14.0934 11.814
rfingers 7.12502
rthumb 12.039 -17.8197
lclavicle 5.89148e-014 -4.86029e-014
lhumerus -37.1352 -22.4653 84.6761
lradius 42.5273
lwrist 12.7434
lhand -5.77256 0.483863
lfingers 7.12502
lthumb 20.051 29.4693
rfemur -12.4476 3.04616 9.37893
rtibia 38.142
rfoot -22.6847 13.1588
rtoes -14.7067
lfemur -21.4123 4.47041 -24.8248
ltibia 40.1588
lfoot -19.2715 -0.971938
ltoes -9.77822
239
root 6.38426 18.864 0.212931 436.875 86.132 -650.078
lowerback 2.7111 3.16679 0.258737
upperback 5.6709 4.53047 -3.27815
thorax 4.63975 2.43595 -3.46467
lowerneck 1.28146 -3.69218 2.01023
upperneck -7.44231 -4.8986 -1.25352
head -2.66597 -2.42885 -0.609685
rclavicle -2.09718e-014 1.99779e-014
rhumerus -25.9646 -8.4786 -84.3879
rradius 26.6606
rwrist 4.48995
rhand -13.8407 11.7541
rfingers 7.12502
rthumb 12.2827 -17.8651
lclavicle -2.09718e-014 1.99779e-014
lhumerus -37.5623 -21.6438 84.6991
lradius 42.4136
lwrist 15.4847
lhand -3.668 2.047
lfingers 7.12502
lthumb 22.0727 30.8072
rfemur -11.7202 2.85018 9.37833
rtibia 36.7547
rfoot -22.301 13.3284
rtoes -14.173
lfemur -20.7534 4.56342 -24.7998
ltibia 39.0282
lfoot -18.9901 -1.05513
ltoes -9.29366
240
root 6.423 18.9059 0.210044 434.961 86.1343 -652.085
lowerback 2.21992 3.20042 0.126312
upperback 5.52016 4.57851 -3.40519
thorax 4.76289 2.45293 -3.49596
lowerneck 1.6388 -3.63616 2.01831
upperneck -7.82476 -4.79908 -1.00293
head -2.85143 -2.38475 -0.524109
rclavicle -2.90723e-014 1.27222e-014
rhumerus -26.5307 -8.4835 -84.4527
rradius 26.9402
rwrist 4.39411
rhand -13.6267 11.7151
rfingers 7.12502
rthumb 12.489 -17.8917
lclavicle -2.90723e-014 1.27222e-014
lhumerus -37.9607 -20.8463 84.684
lradius 42.3464
lwrist 17.9233
lhand -1.75121 3.94743
lfingers 7.12502
lthumb 23.912 32.4786
rfemur -11.0239 2.60094 9.39862
rtibia 35.4372
rfoot -21.9048 13.5628
rtoes -13.2955
lfemur -20.1579 4.66545 -24.748
ltibia 37.9873
lfoot -18.7418 -1.18421
ltoes -8.91708
241
root 6.46245 18.9425 0.207614 433.577 86.1504 -653.565
lowerback 1.71807 3.21615 -0.00699261
upperback 5.38735 4.60505 -3.51216
thorax 4.90809 2.45905 -3.50508
lowerneck 1.90459 -3.56964 1.95824
upperneck -8.14108 -4.68614 -0.733042
head -2.99638 -2.33376 -0.423205
rclavicle 5.89397e-014 -2.28602e-014
rhumerus -27.093 -8.40592 -84.5069
rradius 27.276
rwrist 4.19755
rhand -13.4422 11.6771
rfingers 7.12502
rthumb 12.6669 -17.9187
lclavicle 5.89397e-014 -2.28602e-014
lhumerus -38.2934 -19.9685 84.623
lradius 42.2727
lwrist 19.9358
lhand -0.0315947 5.82008
lfingers 7.12502
lthumb 25.5601 34.1252
rfemur -10.3506 2.29398 9.41568
rtibia 34.1742
rfoot -21.5334 13.8249
rtoes -12.6253
lfemur -19.6154 4.72658 -24.6847
ltibia 37.0517
lfoot -18.5123 -1.36706
ltoes -8.26173
242
root 6.50176 18.9723 0.204379 432.278 86.1951 -654.951
lowerback 1.23903 3.23348 -0.105219
upperback 5.25142 4.63474 -3.62064
thorax 5.04075 2.46844 -3.53669
lowerneck 2.15328 -3.52167 1.9424
upperneck -8.4042 -4.59573 -0.469393
head -3.12332 -2.29615 -0.331628
rclavicle 9.93923e-015 1.31198e-014
rhumerus -27.7349 -8.28489 -84.5876
rradius 27.6856
rwrist 3.93212
rhand -13.3519 11.6307
rfingers 7.12502
rthumb 12.7539 -17.9598
lclavicle 9.93923e-015 1.31198e-014
lhumerus -38.5831 -19.1077 84.499
lradius 42.1868
lwrist 21.6455
lhand 1.48596 7.25769
lfingers 7.12502
lthumb 27.0129 35.3461
rfemur -9.69456 1.93496 9.44238
rtibia 32.9634
rfoot -21.1125 14.2534
rtoes -11.2058
lfemur -19.1334 4.86436 -24.6009
ltibia 36.2343
lfoot -18.3561 -1.58077
ltoes -7.90282
243
root 6.54064 18.9973 0.201738 430.981 86.2851 -656.318
lowerback 0.784334 3.23489 -0.180672
upperback 5.13985 4.64273 -3.68889
thorax 5.18233 2.46724 -3.54076
lowerneck 2.36469 -3.47826 1.97761
upperneck -8.67936 -4.52086 -0.372511
head -3.25515 -2.26222 -0.302443
rclavicle -5.26779e-014 2.54444e-014
rhumerus -28.3814 -8.1418 -84.635
rradius 28.1479
rwrist 3.63521
rhand -13.2417 11.5366
rfingers 7.12502
rthumb 12.8602 -18.0473
lclavicle -5.26779e-014 2.54444e-014
lhumerus -38.7701 -18.1522 84.341
lradius 42.0824
lwrist 23.0411
lhand 2.95057 8.20031
lfingers 7.12502
lthumb 28.4133 36.0634
rfemur -9.05151 1.5785 9.5158
rtibia 31.8196
rfoot -20.6991 14.6577
rtoes -9.8378
lfemur -18.6912 5.03083 -24.4595
ltibia 35.5389
lfoot -18.2538 -1.88628
ltoes -7.36601
244
root 6.57923 19.0154 0.199689 429.608 86.371 -657.753
lowerback 0.372251 3.2485 -0.247382
upperback 5.01938 4.66736 -3.76879
thorax 5.29349 2.47517 -3.56403
lowerneck 2.62193 -3.46374 2.05421
upperneck -8.95816 -4.48409 -0.310379
head -3.40067 -2.2477 -0.289281
rclavicle 5.43676e-014 -2.82274e-014
rhumerus -29.0595 -7.95593 -84.7024
rradius 28.5916
rwrist 3.22014
rhand -13.1687 11.4682
rfingers 7.12502
rthumb 12.9306 -18.1112
lclavicle 5.43676e-014 -2.82274e-014
lhumerus -38.9042 -17.3201 84.1893
lradius 41.9335
lwrist 24.1716
lhand 4.3558 8.85583
lfingers 7.12502
lthumb 29.7553 36.4871
rfemur -8.44216 1.23598 9.57753
rtibia 30.7501
rfoot -20.271 15.1587
rtoes -8.21281
lfemur -18.3061 5.2022 -24.3181
ltibia 34.9706
lfoot -18.2395 -2.19575
ltoes -6.83112
245
root 6.61558 19.0276 0.198405 428.857 86.387 -658.551
lowerback -0.0118505 3.23766 -0.420757
upperback 4.92866 4.66538 -3.84836
thorax 5.40984 2.4661 -3.52972
lowerneck 2.69389 -3.43047 2.11219
upperneck -9.09578 -4.43009 -0.287017
head -3.46261 -2.22297 -0.291139
rclavicle 1.92821e-014 -1.23246e-014
rhumerus -29.6073 -7.84048 -84.729
rradius 28.9345
rwrist 2.8557
rhand -13.0479 11.433
rfingers 7.12502
rthumb 13.0471 -18.139
lclavicle 1.92821e-014 -1.23246e-014
lhumerus -38.9576 -16.4553 84.0404
lradius 41.7684
lwrist 25.1115
lhand 5.69059 9.36987
lfingers 7.12502
lthumb 31.0284 36.7659
rfemur -7.86745 0.890688 9.55189
rtibia 29.7753
rfoot -19.9247 15.6049
rtoes -6.76072
lfemur -17.9802 5.46244 -24.2605
ltibia 34.5174
lfoot -18.2364 -2.60496
ltoes -6.29313
246
root 6.64978 19.0336 0.198503 429.034 86.3413 -658.417
lowerback -0.340126 3.22253 -0.665669
upperback 4.83022 4.66359 -3.97245
thorax 5.48481 2.45595 -3.50571
lowerneck 2.57809 -3.3941 2.16554
upperneck -9.02498 -4.37014 -0.175247
head -3.41329 -2.19916 -0.269233
rclavicle -3.37934e-014 2.74323e-014
rhumerus -30.14 -7.77843 -84.7774
rradius 29.3065
rwrist 2.47569
rhand -12.9007 11.3407
rfingers 7.12502
rthumb 13.1889 -18.2221
lclavicle -3.37934e-014 2.74323e-014
lhumerus -38.9551 -15.6997 83.8774
lradius 41.5204
lwrist 25.7309
lhand 6.86058 9.5807
lfingers 7.12502
lthumb 32.143 36.7579
rfemur -7.34638 0.516754 9.43509
rtibia 28.9078
rfoot -19.6025 16.1084
rtoes -5.24497
lfemur -17.7176 5.72619 -24.2859
ltibia 34.1704
lfoot -18.2788 -3.0784
ltoes -5.70164
247
root 6.6832 19.0354 0.198044 429.556 86.2683 -657.91
lowerback -0.647437 3.19747 -0.957163
upperback 4.77605 4.65454 -4.08416
thorax 5.58956 2.44085 -3.44355
lowerneck 2.27929 -3.35437 2.20294
upperneck -8.85601 -4.31397 -0.0968968
head -3.29577 -2.17494 -0.259601
rclavicle 2.14687e-014 -4.96962e-014
rhumerus -30.615 -7.72126 -84.7972
rradius 29.6879
rwrist 2.03292
rhand -12.7793 11.2343
rfingers 7.12502
rthumb 13.3059 -18.321
lclavicle 2.14687e-014 -4.96962e-014
lhumerus -38.9018 -14.9461 83.7512
lradius 41.2661
lwrist 26.0743
lhand 7.72593 9.68713
lfingers 7.12502
lthumb 32.9664 36.6944
rfemur -6.83889 0.14042 9.26936
rtibia 28.1467
rfoot -19.3726 16.6095
rtoes -3.99768
lfemur -17.4781 6.09611 -24.343
ltibia 33.9207
lfoot -18.3615 -3.68138
ltoes -4.97517
248
root 6.7147 19.0313 0.198901 430.507 86.1473 -656.943
lowerback -0.882538 3.15335 -1.34132
upperback 4.71824 4.62235 -4.18426
thorax 5.63972 2.40987 -3.32364
lowerneck 1.94764 -3.30753 2.24556
upperneck -8.63959 -4.25648 -0.0947764
head -3.15865 -2.14729 -0.276434
rclavicle -1.68967e-014 3.97569e-015
rhumerus -31.1047 -7.68777 -84.7682
rradius 30.0418
rwrist 1.61348
rhand -12.6165 11.1505
rfingers 7.12502
rthumb 13.4629 -18.3944
lclavicle -1.68967e-014 3.97569e-015
lhumerus -38.9605 -14.2557 83.6765
lradius 41.0809
lwrist 26.2848
lhand 8.3433 9.61047
lfingers 7.12502
lthumb 33.5534 36.4923
rfemur -6.35044 -0.296714 9.03941
rtibia 27.4816
rfoot -19.1591 17.1497
rtoes -2.77847
lfemur -17.2613 6.64086 -24.4511
ltibia 33.7554
lfoot -18.4271 -4.48988
ltoes -4.27018
249
root 6.74467 19.0233 0.200302 431.651 85.9732 -655.765
lowerback -1.0788 3.1135 -1.78097
upperback 4.6722 4.60217 -4.30806
thorax 5.67932 2.38402 -3.19911
lowerneck 1.56289 -3.25769 2.36229
upperneck -8.40828 -4.19625 -0.133736
head -3.01053 -2.11884 -0.319946
rclavicle -1.78906e-015 1.59028e-015
rhumerus -31.572 -7.68934 -84.7304
rradius 30.3812
rwrist 1.20804
rhand -12.4354 11.103
rfingers 7.12502
rthumb 13.6374 -18.4302
lclavicle -1.78906e-015 1.59028e-015
lhumerus -39.0599 -13.587 83.5857
lradius 40.9096
lwrist 26.2088
lhand 8.73107 9.127
lfingers 7.12502
lthumb 33.9218 35.9281
rfemur -5.87325 -0.733746 8.74361
rtibia 26.8873
rfoot -19.0022 17.7185
rtoes -1.69403
lfemur -17.0828 7.27017 -24.6153
ltibia 33.6757
lfoot -18.4899 -5.36772
ltoes -3.43779
